<mxfile host="app.diagrams.net" modified="2024-02-28T02:44:10.225Z" agent="Mozilla/5.0 (Windows NT 10.0; Win64; x64) AppleWebKit/537.36 (KHTML, like Gecko) Chrome/121.0.0.0 Safari/537.36" etag="vUFh_lxSVKLYaBKxx1y6" version="23.1.4" type="device">
  <diagram name="Page-1" id="dtFRwcxsvF_0hZMCSyhE">
    <mxGraphModel dx="875" dy="515" grid="1" gridSize="10" guides="1" tooltips="1" connect="1" arrows="1" fold="1" page="1" pageScale="1" pageWidth="850" pageHeight="1100" math="0" shadow="0">
      <root>
        <mxCell id="0" />
        <mxCell id="1" parent="0" />
        <mxCell id="E8tcelXD3QDB-gluEK94-1" value="Connections" style="rounded=0;whiteSpace=wrap;html=1;" vertex="1" parent="1">
          <mxGeometry x="365" y="230" width="120" height="60" as="geometry" />
        </mxCell>
        <mxCell id="E8tcelXD3QDB-gluEK94-3" value="Get Word Sets" style="rounded=0;whiteSpace=wrap;html=1;" vertex="1" parent="1">
          <mxGeometry x="60" y="380" width="120" height="60" as="geometry" />
        </mxCell>
        <mxCell id="E8tcelXD3QDB-gluEK94-5" value="" style="endArrow=none;html=1;rounded=0;" edge="1" parent="1">
          <mxGeometry width="50" height="50" relative="1" as="geometry">
            <mxPoint x="180" y="380" as="sourcePoint" />
            <mxPoint x="400" y="290" as="targetPoint" />
          </mxGeometry>
        </mxCell>
        <mxCell id="E8tcelXD3QDB-gluEK94-6" value="" style="endArrow=classic;html=1;rounded=0;startArrow=oval;startFill=0;" edge="1" parent="1">
          <mxGeometry width="50" height="50" relative="1" as="geometry">
            <mxPoint x="270" y="360" as="sourcePoint" />
            <mxPoint x="330" y="330" as="targetPoint" />
          </mxGeometry>
        </mxCell>
        <mxCell id="E8tcelXD3QDB-gluEK94-7" value="word sets" style="text;html=1;align=center;verticalAlign=middle;whiteSpace=wrap;rounded=0;" vertex="1" parent="1">
          <mxGeometry x="280" y="350" width="50" height="30" as="geometry" />
        </mxCell>
        <mxCell id="E8tcelXD3QDB-gluEK94-8" value="Play Again Prompt" style="rounded=0;whiteSpace=wrap;html=1;" vertex="1" parent="1">
          <mxGeometry x="660" y="380" width="120" height="60" as="geometry" />
        </mxCell>
        <mxCell id="E8tcelXD3QDB-gluEK94-9" value="" style="endArrow=none;html=1;rounded=0;entryX=0.75;entryY=1;entryDx=0;entryDy=0;" edge="1" parent="1" target="E8tcelXD3QDB-gluEK94-1">
          <mxGeometry width="50" height="50" relative="1" as="geometry">
            <mxPoint x="660" y="380" as="sourcePoint" />
            <mxPoint x="710" y="330" as="targetPoint" />
          </mxGeometry>
        </mxCell>
        <mxCell id="E8tcelXD3QDB-gluEK94-10" value="" style="endArrow=classic;html=1;rounded=0;startArrow=oval;startFill=1;" edge="1" parent="1">
          <mxGeometry width="50" height="50" relative="1" as="geometry">
            <mxPoint x="611" y="348" as="sourcePoint" />
            <mxPoint x="561" y="328" as="targetPoint" />
          </mxGeometry>
        </mxCell>
        <mxCell id="E8tcelXD3QDB-gluEK94-11" value="play game" style="text;html=1;align=center;verticalAlign=middle;whiteSpace=wrap;rounded=0;" vertex="1" parent="1">
          <mxGeometry x="580" y="310" width="60" height="30" as="geometry" />
        </mxCell>
        <mxCell id="E8tcelXD3QDB-gluEK94-12" value="" style="curved=1;endArrow=classic;html=1;rounded=0;" edge="1" parent="1">
          <mxGeometry width="50" height="50" relative="1" as="geometry">
            <mxPoint x="445" y="294" as="sourcePoint" />
            <mxPoint x="435" y="294" as="targetPoint" />
            <Array as="points">
              <mxPoint x="485" y="304" />
              <mxPoint x="475" y="314" />
              <mxPoint x="435" y="324" />
              <mxPoint x="375" y="314" />
              <mxPoint x="385" y="294" />
            </Array>
          </mxGeometry>
        </mxCell>
        <mxCell id="E8tcelXD3QDB-gluEK94-13" value="play game = True" style="text;html=1;align=center;verticalAlign=middle;whiteSpace=wrap;rounded=0;fontSize=10;" vertex="1" parent="1">
          <mxGeometry x="420" y="331" width="100" height="30" as="geometry" />
        </mxCell>
        <mxCell id="E8tcelXD3QDB-gluEK94-15" value="Play Game" style="rounded=0;whiteSpace=wrap;html=1;" vertex="1" parent="1">
          <mxGeometry x="365" y="440" width="120" height="60" as="geometry" />
        </mxCell>
        <mxCell id="E8tcelXD3QDB-gluEK94-16" value="" style="endArrow=none;html=1;rounded=0;exitX=0.5;exitY=0;exitDx=0;exitDy=0;entryX=0.5;entryY=1;entryDx=0;entryDy=0;" edge="1" parent="1" source="E8tcelXD3QDB-gluEK94-15" target="E8tcelXD3QDB-gluEK94-1">
          <mxGeometry width="50" height="50" relative="1" as="geometry">
            <mxPoint x="460" y="450" as="sourcePoint" />
            <mxPoint x="510" y="400" as="targetPoint" />
          </mxGeometry>
        </mxCell>
        <mxCell id="E8tcelXD3QDB-gluEK94-18" value="" style="endArrow=classic;html=1;rounded=0;startArrow=oval;startFill=0;" edge="1" parent="1">
          <mxGeometry width="50" height="50" relative="1" as="geometry">
            <mxPoint x="437" y="374" as="sourcePoint" />
            <mxPoint x="437" y="404" as="targetPoint" />
          </mxGeometry>
        </mxCell>
        <mxCell id="E8tcelXD3QDB-gluEK94-19" value="" style="endArrow=classic;html=1;rounded=0;startArrow=oval;startFill=0;" edge="1" parent="1">
          <mxGeometry width="50" height="50" relative="1" as="geometry">
            <mxPoint x="414" y="374" as="sourcePoint" />
            <mxPoint x="414" y="404" as="targetPoint" />
          </mxGeometry>
        </mxCell>
        <mxCell id="E8tcelXD3QDB-gluEK94-20" value="attempts" style="text;html=1;align=center;verticalAlign=middle;whiteSpace=wrap;rounded=0;fontSize=11;" vertex="1" parent="1">
          <mxGeometry x="433" y="371" width="60" height="30" as="geometry" />
        </mxCell>
        <mxCell id="E8tcelXD3QDB-gluEK94-21" value="word sets" style="text;html=1;align=center;verticalAlign=middle;whiteSpace=wrap;rounded=0;fontSize=11;" vertex="1" parent="1">
          <mxGeometry x="357" y="370" width="60" height="30" as="geometry" />
        </mxCell>
        <mxCell id="E8tcelXD3QDB-gluEK94-23" value="" style="curved=1;endArrow=classic;html=1;rounded=0;" edge="1" parent="1">
          <mxGeometry width="50" height="50" relative="1" as="geometry">
            <mxPoint x="440" y="500" as="sourcePoint" />
            <mxPoint x="430" y="500" as="targetPoint" />
            <Array as="points">
              <mxPoint x="500" y="510" />
              <mxPoint x="460" y="530" />
              <mxPoint x="430" y="530" />
              <mxPoint x="350" y="520" />
              <mxPoint x="380" y="500" />
            </Array>
          </mxGeometry>
        </mxCell>
        <mxCell id="E8tcelXD3QDB-gluEK94-26" value="while attempts&amp;lt;4 and NOT game won" style="text;html=1;align=center;verticalAlign=middle;whiteSpace=wrap;rounded=0;fontSize=8;" vertex="1" parent="1">
          <mxGeometry x="382" y="500" width="87" height="30" as="geometry" />
        </mxCell>
        <mxCell id="E8tcelXD3QDB-gluEK94-30" value="Check Win" style="rounded=0;whiteSpace=wrap;html=1;" vertex="1" parent="1">
          <mxGeometry x="660" y="610" width="120" height="60" as="geometry" />
        </mxCell>
        <mxCell id="E8tcelXD3QDB-gluEK94-31" value="" style="endArrow=none;html=1;rounded=0;entryX=0;entryY=0;entryDx=0;entryDy=0;exitX=0.5;exitY=1;exitDx=0;exitDy=0;" edge="1" parent="1" source="E8tcelXD3QDB-gluEK94-15" target="E8tcelXD3QDB-gluEK94-30">
          <mxGeometry width="50" height="50" relative="1" as="geometry">
            <mxPoint x="490" y="500" as="sourcePoint" />
            <mxPoint x="510" y="600" as="targetPoint" />
          </mxGeometry>
        </mxCell>
        <mxCell id="E8tcelXD3QDB-gluEK94-32" value="" style="endArrow=classic;html=1;rounded=0;startArrow=oval;startFill=0;" edge="1" parent="1">
          <mxGeometry width="50" height="50" relative="1" as="geometry">
            <mxPoint x="590" y="566" as="sourcePoint" />
            <mxPoint x="630" y="586" as="targetPoint" />
          </mxGeometry>
        </mxCell>
        <mxCell id="E8tcelXD3QDB-gluEK94-33" value="word sets" style="text;html=1;align=center;verticalAlign=middle;whiteSpace=wrap;rounded=0;" vertex="1" parent="1">
          <mxGeometry x="600" y="540" width="50" height="30" as="geometry" />
        </mxCell>
        <mxCell id="E8tcelXD3QDB-gluEK94-35" value="" style="endArrow=classic;html=1;rounded=0;startArrow=oval;startFill=0;" edge="1" parent="1">
          <mxGeometry width="50" height="50" relative="1" as="geometry">
            <mxPoint x="580" y="580" as="sourcePoint" />
            <mxPoint x="620" y="600" as="targetPoint" />
          </mxGeometry>
        </mxCell>
        <mxCell id="E8tcelXD3QDB-gluEK94-36" value="verified guessed sets" style="text;html=1;align=center;verticalAlign=middle;whiteSpace=wrap;rounded=0;" vertex="1" parent="1">
          <mxGeometry x="550" y="596" width="60" height="30" as="geometry" />
        </mxCell>
        <mxCell id="E8tcelXD3QDB-gluEK94-37" value="Check Guessed Word Sets" style="rounded=0;whiteSpace=wrap;html=1;" vertex="1" parent="1">
          <mxGeometry x="420" y="680" width="120" height="60" as="geometry" />
        </mxCell>
        <mxCell id="E8tcelXD3QDB-gluEK94-38" value="" style="endArrow=none;html=1;rounded=0;exitX=0.5;exitY=0;exitDx=0;exitDy=0;entryX=0.5;entryY=1;entryDx=0;entryDy=0;" edge="1" parent="1" source="E8tcelXD3QDB-gluEK94-37" target="E8tcelXD3QDB-gluEK94-15">
          <mxGeometry width="50" height="50" relative="1" as="geometry">
            <mxPoint x="430" y="590" as="sourcePoint" />
            <mxPoint x="460" y="550" as="targetPoint" />
          </mxGeometry>
        </mxCell>
        <mxCell id="E8tcelXD3QDB-gluEK94-41" value="" style="endArrow=classic;html=1;rounded=0;startArrow=oval;startFill=0;" edge="1" parent="1">
          <mxGeometry width="50" height="50" relative="1" as="geometry">
            <mxPoint x="458" y="581" as="sourcePoint" />
            <mxPoint x="473.5" y="621" as="targetPoint" />
          </mxGeometry>
        </mxCell>
        <mxCell id="E8tcelXD3QDB-gluEK94-42" value="word sets" style="text;html=1;align=center;verticalAlign=middle;whiteSpace=wrap;rounded=0;" vertex="1" parent="1">
          <mxGeometry x="464" y="579" width="40" height="30" as="geometry" />
        </mxCell>
        <mxCell id="E8tcelXD3QDB-gluEK94-43" value="" style="endArrow=classic;html=1;rounded=0;startArrow=oval;startFill=0;" edge="1" parent="1">
          <mxGeometry width="50" height="50" relative="1" as="geometry">
            <mxPoint x="453" y="620" as="sourcePoint" />
            <mxPoint x="440" y="579" as="targetPoint" />
          </mxGeometry>
        </mxCell>
        <mxCell id="E8tcelXD3QDB-gluEK94-44" value="verified guessed sets" style="text;html=1;align=center;verticalAlign=middle;whiteSpace=wrap;rounded=0;" vertex="1" parent="1">
          <mxGeometry x="391" y="600" width="60" height="30" as="geometry" />
        </mxCell>
        <mxCell id="E8tcelXD3QDB-gluEK94-46" value="" style="endArrow=classic;html=1;rounded=0;startArrow=oval;startFill=0;" edge="1" parent="1">
          <mxGeometry width="50" height="50" relative="1" as="geometry">
            <mxPoint x="476" y="630" as="sourcePoint" />
            <mxPoint x="491.5" y="670" as="targetPoint" />
          </mxGeometry>
        </mxCell>
        <mxCell id="E8tcelXD3QDB-gluEK94-47" value="guessed sets" style="text;html=1;align=center;verticalAlign=middle;whiteSpace=wrap;rounded=0;" vertex="1" parent="1">
          <mxGeometry x="482" y="630" width="60" height="30" as="geometry" />
        </mxCell>
        <mxCell id="E8tcelXD3QDB-gluEK94-50" value="" style="rounded=0;whiteSpace=wrap;html=1;" vertex="1" parent="1">
          <mxGeometry x="30" y="570" width="120" height="60" as="geometry" />
        </mxCell>
        <mxCell id="E8tcelXD3QDB-gluEK94-51" value="Get Word Set Guess" style="rounded=0;whiteSpace=wrap;html=1;" vertex="1" parent="1">
          <mxGeometry x="220" y="680" width="120" height="60" as="geometry" />
        </mxCell>
        <mxCell id="E8tcelXD3QDB-gluEK94-52" value="" style="endArrow=none;html=1;rounded=0;exitX=0.5;exitY=0;exitDx=0;exitDy=0;entryX=0.5;entryY=0;entryDx=0;entryDy=0;" edge="1" parent="1" source="E8tcelXD3QDB-gluEK94-51" target="E8tcelXD3QDB-gluEK94-26">
          <mxGeometry width="50" height="50" relative="1" as="geometry">
            <mxPoint x="280" y="676" as="sourcePoint" />
            <mxPoint x="330" y="626" as="targetPoint" />
          </mxGeometry>
        </mxCell>
        <mxCell id="E8tcelXD3QDB-gluEK94-53" value="guessed sets" style="text;html=1;align=center;verticalAlign=middle;whiteSpace=wrap;rounded=0;" vertex="1" parent="1">
          <mxGeometry x="270" y="584" width="60" height="30" as="geometry" />
        </mxCell>
        <mxCell id="E8tcelXD3QDB-gluEK94-54" value="" style="endArrow=classic;html=1;rounded=0;startArrow=oval;startFill=0;" edge="1" parent="1">
          <mxGeometry width="50" height="50" relative="1" as="geometry">
            <mxPoint x="310" y="626" as="sourcePoint" />
            <mxPoint x="340" y="585.5" as="targetPoint" />
          </mxGeometry>
        </mxCell>
      </root>
    </mxGraphModel>
  </diagram>
</mxfile>
